# xmcd
#
# Track frame offsets:
#	150
#	13220
#	26747
#	42685
#	54812
#	64362
#	90845
#	105060
#	116322
#	133630
#	146900
#	159090
#
# Disc length: 2378 seconds
#
# Revision: 1
# Processed by: cddbd v1.5.2PL0 Copyright (c) Steve Scherf et al.
# Submitted via: audiograbber 1.83.01
#
DISCID=9409480c
DTITLE=Taller(Andrés Molina - Pedro Guerra - Rogelio Botanz) - Identidad
DYEAR=1900
DGENRE=Pop
TTITLE0=Endecha
TTITLE1=Mararia
TTITLE2=Generaciones
TTITLE3=Acerina
TTITLE4=A voz en Cuello
TTITLE5=La Maleta
TTITLE6=Tibiabin
TTITLE7=Ahehiles
TTITLE8=En Paro
TTITLE9=Por Esa Hora
TTITLE10=Poderes
TTITLE11=San Borondon
EXTD=
EXTT0=
EXTT1=
EXTT2=
EXTT3=
EXTT4=
EXTT5=
EXTT6=
EXTT7=
EXTT8=
EXTT9=
EXTT10=
EXTT11=
PLAYORDER=
